<?xml version="1.0" encoding="UTF-8" standalone="no"?>
<!-- Created with Inkscape (http://www.inkscape.org/) -->

<svg
   version="1.1"
   id="svg1"
   width="500"
   height="500"
   viewBox="0 0 500 500"
   sodipodi:docname="logo_Park_Garage"
   inkscape:version="1.3.1 (9b9bdc1480, 2023-11-25, custom)"
   xmlns:inkscape="http://www.inkscape.org/namespaces/inkscape"
   xmlns:sodipodi="http://sodipodi.sourceforge.net/DTD/sodipodi-0.dtd"
   xmlns="http://www.w3.org/2000/svg"
   xmlns:svg="http://www.w3.org/2000/svg">
  <defs
     id="defs1" />
  <sodipodi:namedview
     id="namedview1"
     pagecolor="#ffffff"
     bordercolor="#000000"
     borderopacity="0.25"
     inkscape:showpageshadow="2"
     inkscape:pageopacity="0.0"
     inkscape:pagecheckerboard="0"
     inkscape:deskcolor="#d1d1d1"
     showgrid="false"
     inkscape:zoom="1.68"
     inkscape:cx="249.70238"
     inkscape:cy="312.5"
     inkscape:window-width="1920"
     inkscape:window-height="1043"
     inkscape:window-x="0"
     inkscape:window-y="0"
     inkscape:window-maximized="1"
     inkscape:current-layer="g1" />
  <g
     inkscape:groupmode="layer"
     inkscape:label="Image"
     id="g1">
    <ellipse
       style="fill:#f9f9f9"
       id="path10"
       cx="255.03511"
       cy="242.06892"
       rx="231.27907"
       ry="229.99442" />
    <path
       style="fill:#000000"
       d="m 233.3897,433.41564 c -1.925,-0.2027 -8.45,-1.2901 -14.5,-2.41645 -33.84229,-6.30053 -67.61549,-23.58817 -92.15397,-47.17126 l -7.15397,-6.87544 -7.64442,1.42436 -7.64443,1.42436 -4.07095,-4.59848 c -5.603423,-6.32952 -6.254153,-8.12401 -10.330883,-28.48895 -1.96976,-9.83977 -4.00627,-18.68439 -4.52557,-19.65472 -5.98406,-11.18131 -13.94635,-38.6243 -16.00371,-55.15867 -1.6418,-13.19472 -0.78966,-46.52386 1.47659,-57.75272 2.19497,-10.87566 1.93164,-11.13254 -10.58089,-10.32189 -8.57567,0.5556 -9.05594,0.47512 -11.656,-1.95319 -2.59077,-2.41962 -3.40362,-2.55925 -18.2118,-3.12848 -15.95859,-0.61345 -21.3262698,-1.30292 -20.5038098,-2.63369 0.2600898,-0.42083 5.3173398,-1.07909 11.2383498,-1.46279 13.83168,-0.89634 17.38361,-1.27285 25.08845,-2.65946 4.69037,-0.8441 6.614,-0.84692 7.45,-0.0109 0.61985,0.61985 2.4074,1.127 3.97232,1.127 2.71678,0 2.81529,-0.16005 2.18062,-3.54314 -0.85537,-4.55948 1.611,-11.16 5.59703,-14.97886 l 2.98746,-2.86217 7.13995,1.71359 c 3.92697,0.94248 7.20079,1.59141 7.27515,1.44209 0.0744,-0.14933 1.47154,-3.16881 3.10484,-6.70995 8.04076,-17.43309 19.618093,-33.96275 34.952903,-49.90438 9.04058,-9.39833 28.18357,-25.157187 30.55956,-25.157187 0.52645,0 0.96332,1.2375 0.97083,2.75 0.008,1.512497 0.26032,3.668137 0.5618,4.790317 0.4404,1.63926 -1.04304,3.27372 -7.54673,8.31499 -19.18291,14.86946 -37.80338,37.22776 -48.632333,58.39469 -2.93392,5.73483 -1.85297,5.98956 4.773893,1.125 5.36157,-3.93575 7.50023,-4.28714 14.37612,-2.36201 5.09921,1.42769 5.65629,1.16638 5.96827,-2.79947 0.26958,-3.42692 8.08781,-14.59668 11.28238,-16.11894 1.26338,-0.60202 3.53588,-1.09458 5.05,-1.09458 1.51412,0 3.24698,-0.49403 3.85079,-1.09784 0.60382,-0.60382 2.76958,-1.16632 4.8128,-1.25 3.63127,-0.14873 3.76752,-0.2986 6.04797,-6.65216 3.79729,-10.57959 13.799,-17.53068 26.87855,-18.68031 5.70993,-0.50188 7.20006,-0.24263 11.94291,2.07783 5.45698,2.66985 10.17617,7.55624 14.45742,14.96962 2.36741,4.09938 3.25505,12.01402 1.89346,16.88286 -0.68884,2.46317 -0.51246,2.75 1.69098,2.75 1.35302,0 2.77024,-0.50191 3.14937,-1.11536 0.46561,-0.75337 2.18867,-0.85661 5.30902,-0.31811 2.54082,0.43849 11.36968,0.86103 19.61968,0.93898 8.36331,0.079 15.88489,0.61151 17,1.20351 1.1,0.58397 4.925,1.36831 8.5,1.74296 8.14589,0.85368 16.38974,3.10778 17.8644,4.88464 0.87898,1.0591 3.92468,1.25594 13.88083,0.89709 11.51252,-0.41495 12.99826,-0.68108 15.25477,-2.73255 4.2405,-3.85519 9.19998,-5.78251 16.16154,-6.28061 8.73253,-0.6248 10.59687,-0.0656 16.1876,4.85557 7.77236,6.84151 12.02792,16.55352 9.65508,22.03481 -0.92983,2.14793 -0.99561,2.03579 -0.65168,-1.11093 0.88965,-8.1395 -5.86665,-19.64342 -13.72738,-23.37358 -4.41933,-2.09712 -11.45029,-2.07351 -16.85492,0.0566 -4.87241,1.92033 -12.44037,6.63688 -11.13793,6.94144 11.6553,2.72552 16.36769,6.03946 16.36769,11.51042 0,2.56266 -0.34311,2.86676 -3.25,2.88045 -4.54501,0.0214 -5.99137,1.1748 -5.23789,4.1769 0.62318,2.48296 0.7388,2.50751 14.80799,3.14401 24.79935,1.12193 49.44225,4.68178 59.88971,8.6515 4.05503,1.54079 4.79019,1.59458 4.79019,0.35046 0,-4.97436 -6.00715,-8.80464 -12.34069,-7.86868 -3.40293,0.50289 -3.81958,0.4041 -2.29114,-0.54324 4.71765,-2.92402 15.60849,2.30372 15.64714,7.51083 0.0299,4.03055 1.36531,4.82428 4.81085,2.85949 2.87353,-1.63861 3.39206,-1.66206 5.89716,-0.26668 3.4288,1.9099 7.4224,8.77545 6.672,11.4701 -0.30632,1.1 -1.64558,2.99092 -2.97613,4.20203 -2.98817,2.71994 -3.14131,5.934 -0.32534,6.82776 1.49276,0.47378 2.87208,-0.081 4.80472,-1.93261 3.25885,-3.12218 4.23631,-3.21061 6.60143,-0.59718 2.69907,2.98244 4.6758,2.60331 3.91047,-0.75 -6.42225,-28.13927 -13.4747,-45.34911 -26.73889,-65.25 -10.89597,-16.34773 -26.80391,-33.00457 -42.07142,-44.05202 -7.91613,-5.72805 -8.26959,-6.42393 -6.73185,-13.253457 l 0.63169,-2.8055 7.5,5.16657 c 15.12599,10.419917 26.60983,21.281017 40.64867,38.444387 10.31497,12.6107 23.19158,36.16009 28.97997,53 1.51242,4.4 3.13599,8.26472 3.60794,8.58827 0.47195,0.32355 0.16179,1.16615 -0.68925,1.87245 -2.16216,1.79443 -1.93014,4.03928 0.41749,4.03928 2.22497,0 4.65817,-3.52096 3.00219,-4.34433 -0.55936,-0.27812 -0.44326,-0.38963 0.25799,-0.2478 1.99172,0.40282 2.17856,3.82387 0.28449,5.20885 -1.32702,0.97034 -1.56337,2.10491 -1.05962,5.08655 1.02949,6.09354 1.75826,6.75758 5.36777,4.89103 6.31375,-3.26496 12.61368,-1.45162 14.86455,4.27856 1.47704,3.76017 1.62338,3.84702 5.70619,3.38683 3.06037,-0.34495 4.54975,-0.0392 5.52339,1.134 1.02512,1.2352 3.22046,1.60631 9.50221,1.60631 7.47079,0 31.52806,2.60871 32.4367,3.51735 0.48038,0.48038 -2.91306,1.18846 -9.10068,1.89896 -2.80895,0.32255 -4.75,0.1446 -4.75,-0.43544 0,-0.53948 1.6875,-1.0347 3.75,-1.1005 6.95366,-0.22182 -11.82784,-2.72653 -21.03518,-2.80525 -6.33023,-0.0541 -9.47937,-0.52997 -11.26937,-1.70282 -1.6319,-1.06926 -3.63786,-1.44048 -5.84683,-1.08202 -3.61648,0.58688 -5.59862,-0.62313 -5.59862,-3.4177 0,-0.95008 -1.2362,-2.69981 -2.74711,-3.88829 -3.55319,-2.79495 -8.7517,-2.07953 -15.62637,2.1505 -6.68055,4.11058 -10.89653,4.74064 -13.25899,1.98148 -2.38999,-2.7913 -3.79784,-2.66933 -6.12914,0.53104 -1.56735,2.15162 -2.43357,2.52052 -4.62623,1.9702 -1.48379,-0.37241 -2.936,-1.4512 -3.22713,-2.39731 -0.29113,-0.94611 -0.88224,-2.39334 -1.31356,-3.21607 -0.58171,-1.10957 0.018,-1.75518 2.32215,-2.5 2.49914,-0.80784 3.16671,-1.62699 3.41499,-4.19045 0.36182,-3.73571 -1.99953,-8.8103 -4.79612,-10.307 -2.59414,-1.38834 -9.5643,1.29689 -8.36441,3.22236 1.40224,2.2502 2.06726,11.59896 0.79023,11.10891 -0.62836,-0.24112 -1.85488,0.64888 -2.72561,1.97777 -1.42458,2.17418 -2.51607,2.48133 -10.89792,3.0667 -23.39006,1.63351 -23.30732,1.6195 -23.40115,3.96164 -0.0475,1.18577 -0.41285,2.89055 -0.81188,3.7884 -0.63597,1.43096 -0.19332,1.53523 3.58637,0.84474 2.37153,-0.43325 8.81188,-1.09029 14.31188,-1.46011 5.5,-0.36981 10.7875,-0.89277 11.75,-1.16213 3.4791,-0.97362 1.55663,1.23269 -4.81899,5.5305 -3.5781,2.41201 -6.95219,5.21985 -7.49797,6.23965 -1.40081,2.61745 -6.2091,4.87489 -10.38338,4.87489 -2.56795,0 -3.54966,0.43682 -3.54966,1.57946 0,1.20927 0.65561,1.43545 2.7973,0.96506 2.90001,-0.63695 17.41194,2.81345 24.6661,5.86468 17.75326,7.46734 3.38697,17.60256 -31.9634,22.54976 -28.87895,4.04154 -73.43539,5.136 -104.5,2.56688 -26.63303,-2.20262 -38.65684,-4.14764 -52.5,-8.49261 -4.18568,-1.31376 -11.89655,-2.22671 -25.5,-3.01914 -39.12385,-2.27905 -66.9628,-7.14494 -76.09761,-13.30088 -2.58721,-1.74353 -3.40239,-3.0021 -3.40239,-5.25304 0,-2.56732 0.69844,-3.31421 5.26291,-5.62793 2.89461,-1.46727 8.59172,-3.45253 12.66024,-4.41168 7.01662,-1.65417 7.42184,-1.90285 7.87404,-4.83224 0.62319,-4.03706 -1.51439,-6.39703 -6.14495,-6.78428 -4.08347,-0.34149 -5.51157,-3.08959 -2.68111,-5.15927 1.29638,-0.94794 1.43799,-1.75361 0.66539,-3.7857 -0.77962,-2.05054 -1.87155,-2.71243 -5.309,-3.2181 -12.59248,-1.85245 -14.937263,-2.43031 -16.836783,-4.14934 -1.9657,-1.77894 -2.21847,-1.78832 -4.93557,-0.1833 -1.57507,0.93042 -4.20341,1.69167 -5.84075,1.69167 -2.67243,0 -3.08347,0.4348 -4.01771,4.25 -3.72054,15.19371 -4.89649,47.05531 -2.33443,63.25 1.45215,9.17904 6.80513,30.56741 7.93238,31.69467 0.41639,0.41639 6.6464,-0.33283 13.844463,-1.66492 29.57691,-5.47358 65.43664,-9.86593 102.345,-12.53592 18.73788,-1.35552 83.42093,-1.34869 102.05869,0.0108 39.26668,2.86419 85.19669,8.77462 113.04829,14.54744 2.46867,0.51168 2.69651,0.182 4.82184,-6.97722 4.86996,-16.4045 6.23615,-25.48842 6.79619,-45.1886 l 0.54338,-19.11378 -3.27989,-1.63622 c -4.745,-2.36712 -6.41872,-2.05122 -9.32582,1.76019 -2.75184,3.60783 -9.56857,6.60356 -15.02634,6.60356 -2.95414,0 -13.62046,-5.64723 -13.62046,-7.21129 0,-1.52 2.05415,-0.7618 6.25866,2.31011 3.89334,2.84456 4.70453,3.05184 9.88661,2.52628 7.00777,-0.71073 10.26016,-2.14562 11.92829,-5.26254 1.66422,-3.10963 5.11958,-3.94599 9.19585,-2.22584 3.94009,1.66268 17.19975,1.54872 19.26536,-0.16557 0.80588,-0.66882 1.45834,-1.94844 1.44992,-2.84359 -0.0133,-1.41421 -0.13961,-1.43093 -0.96353,-0.12756 -0.52152,0.825 -2.29212,1.5 -3.93469,1.5 -1.64256,0 -2.60677,-0.3797 -2.14269,-0.84378 0.46408,-0.46408 1.67608,-0.68349 2.69335,-0.48759 1.25239,0.24119 2.33601,-0.61642 3.35621,-2.65622 2.19303,-4.38475 6.35848,-4.66653 8.47516,-0.57332 1.80249,3.48562 4.75034,4.01175 6.7248,1.20023 1.22331,-1.74193 2.28935,-1.80694 16.70469,-1.01868 8.46889,0.4631 15.63139,1.0754 15.91666,1.36068 1.29764,1.29763 -0.957,1.49355 -5.43196,0.472 -5.93137,-1.35402 -22.01654,-0.41114 -28.25334,1.65615 -5.11395,1.6951 -7.45476,1.19803 -8.86015,-1.88147 -0.98057,-2.14862 -1.081,-2.09509 -2.81891,1.50251 -1.22699,2.53995 -2.81749,4.0656 -4.98369,4.78051 l -3.18157,1.05001 -0.57846,17.71949 c -0.82727,25.34102 -3.81324,41.04297 -11.83203,62.21948 -2.42762,6.411 -5.68898,18.61059 -8.37473,31.32687 l -4.39874,20.82686 -5.62818,6.96588 c -3.88944,4.81389 -6.14482,6.81949 -7.30053,6.492 -0.9198,-0.26063 -4.25905,-0.9866 -7.42055,-1.61326 l -5.74819,-1.1394 -10.25181,9.15341 c -28.31132,25.27798 -62.00956,41.10745 -98.88015,46.44813 -9.71112,1.40665 -36.90534,1.90033 -46.87166,0.85089 z m 34,-9.32482 c 38.69469,-3.3524 71.92424,-16.95073 100.91322,-41.29612 7.20494,-6.05082 8.13845,-7.17699 6.5,-7.8415 -2.23649,-0.90704 -35.97134,-5.31851 -51.91322,-6.78863 -46.69303,-4.30591 -104.14761,-3.73606 -151.5,1.50262 -16.41256,1.81575 -35.98635,4.41936 -37.91516,5.04328 -2.03265,0.65752 3.47,6.12009 14.41516,14.31015 30.6391,22.92667 63.94995,34.38069 104.5,35.93258 1.925,0.0737 8.675,-0.31439 15,-0.86238 z m -27.38768,-14.65277 c 0.38087,-1.55859 1.2989,-4.57787 2.04008,-6.70952 0.74118,-2.13165 1.3476,-4.02957 1.3476,-4.2176 0,-0.18803 -2.5576,-2.26896 -5.68355,-4.62428 l -5.68355,-4.28239 7.38148,-0.5 7.38148,-0.5 1.99461,-6.25 c 1.09704,-3.4375 2.27133,-6.25 2.60953,-6.25 0.3382,0 1.51249,2.8125 2.60953,6.25 l 1.99461,6.25 7.44793,0.5 7.44793,0.5 -5.82393,4.33616 c -3.20316,2.38488 -5.6312,4.85988 -5.39565,5.5 1.96341,5.33565 3.85013,11.86663 3.5227,12.19405 -0.22035,0.22035 -2.97084,-1.42268 -6.1122,-3.65118 l -5.71155,-4.05182 -4.73969,3.38825 c -7.47061,5.34051 -7.41002,5.32114 -6.62736,2.11833 z m -38.10802,-4.13008 -4.93999,-3.96343 -5.01881,3.37986 c -2.76034,1.85892 -5.34214,3.37986 -5.73734,3.37986 -0.39519,0 0.33461,-2.8125 1.62177,-6.25 l 2.34031,-6.25 -5.00053,-4 -5.00054,-4 6.65791,-0.29666 c 5.80035,-0.25845 6.76592,-0.58045 7.49656,-2.5 0.46126,-1.21184 1.62567,-4.00334 2.58758,-6.20334 l 1.74893,-4 1.66718,6.5 1.66719,6.5 6.70274,0.29569 c 3.68651,0.16263 6.70274,0.62 6.70274,1.01637 0,0.39637 -2.475,2.20104 -5.5,4.01037 -3.025,1.80933 -5.5,3.40779 -5.5,3.55213 0,0.14434 0.70189,2.62595 1.55975,5.51469 0.85786,2.88873 1.40783,5.70801 1.22215,6.26506 -0.18569,0.55705 -2.56061,-0.77072 -5.2776,-2.9506 z m 93.50757,3.04629 c 0.007,-0.4125 0.67619,-3.225 1.48813,-6.25 0.81194,-3.025 1.4816,-5.54879 1.48813,-5.60842 0.007,-0.0596 -2.57563,-1.85963 -5.73813,-4 l -5.75,-3.89158 6.99935,-0.5 6.99935,-0.5 1.50065,-5.66841 c 0.82536,-3.11762 1.73778,-5.90475 2.0276,-6.19362 0.28983,-0.28886 1.56407,2.14942 2.83165,5.41841 l 2.30469,5.94362 6.66835,0.0206 6.66836,0.0206 -4.94716,4.32784 -4.94716,4.32783 2.1578,5.85763 c 1.18679,3.22169 1.99966,6.01577 1.80638,6.20905 -0.19328,0.19327 -2.77749,-1.20052 -5.74268,-3.09733 l -5.39125,-3.44875 -4.46797,3.86146 c -4.40282,3.80516 -5.97941,4.64457 -5.95609,3.17114 z m 83.48759,-60 c 1.33385,-8.47655 1.45328,-8.03628 -2.37494,-8.75446 -1.96166,-0.36801 -3.6995,-0.29256 -3.86185,0.16767 -0.8493,2.4076 -2.11864,2.94694 -6.01267,2.55475 -4.10784,-0.41371 -4.25,-0.54496 -4.25,-3.92369 v -3.49566 l 4.54107,0.36117 c 4.05285,0.32234 4.60331,0.11314 5.12009,-1.94588 0.74015,-2.94898 0.3671,-3.26629 -4.62766,-3.93623 -4.02363,-0.53968 -4.11426,-0.63555 -3.46577,-3.66592 0.36624,-1.71146 0.72583,-3.15194 0.79909,-3.20105 0.0732,-0.0491 2.04905,0.11097 4.39067,0.35575 3.47551,0.36331 4.36786,0.8848 4.85841,2.8393 0.4853,1.9336 1.24979,2.39425 3.97346,2.39425 3.58975,0 3.57064,0.0319 4.87663,-8.13428 0.67399,-4.21434 2.14059,-3.70022 -18.34114,-6.42963 -13.5331,-1.80343 -14.07838,-1.66055 -14.10954,3.69728 -0.0101,1.73382 0.61961,2.7994 1.84338,3.11943 1.68714,0.44119 1.77742,1.07493 0.97816,6.86663 -1.74171,12.62105 -1.81901,12.88057 -3.83685,12.88057 -1.39519,0 -2.08855,0.95509 -2.57473,3.54663 -0.36594,1.95064 -0.41095,3.80103 -0.10001,4.11196 0.64062,0.64062 23.47938,4.03783 28.37943,4.22137 2.96069,0.1109 3.24961,-0.16547 3.79477,-3.62996 z m -229.61423,0.35387 c 1.25303,-1.13398 2.14404,-1.36552 2.57451,-0.66901 0.94688,1.53208 8.53792,1.36795 8.54991,-0.18486 0.005,-0.6875 -0.53548,-5.65332 -1.20175,-11.03515 -1.2018,-9.7077 -1.23155,-9.78132 -3.75964,-9.30292 -1.40154,0.26523 -4.91076,0.77327 -7.79826,1.12899 -2.8875,0.35571 -5.24386,0.94203 -5.23635,1.30292 0.0636,3.05404 1.48494,5.15616 3.4864,5.15616 1.6111,0 2.40219,0.70826 2.73486,2.44851 0.62709,3.28043 -0.87802,4.55149 -5.3896,4.55149 -3.53546,0 -3.79506,-0.21523 -4.44622,-3.68621 -0.38035,-2.02741 -0.73824,-6.16188 -0.79531,-9.18772 l -0.10378,-5.50151 3.9726,-0.8429 c 3.32123,-0.7047 4.22304,-0.53418 5.5,1.03997 2.00362,2.46992 10.03536,1.92719 10.01375,-0.67667 -0.0313,-3.76518 -1.30439,-5.7835 -4.98397,-7.9012 -3.64858,-2.09986 -4.37419,-2.17192 -11.66251,-1.15821 -7.09484,0.98681 -8.05431,1.40039 -11.01424,4.74771 -1.78331,2.01671 -3.25304,4.56674 -3.26607,5.66674 -0.0351,2.96039 2.74271,20.63561 3.33631,21.22921 3.81863,3.81862 7.44154,5.27257 12.33863,4.95174 3.15502,-0.20669 5.99575,-1.03185 7.15073,-2.07708 z m 31.44895,-2.25938 c 3.78361,-0.62514 3.82538,-0.68105 3.16644,-4.23899 -0.36726,-1.98303 -1.08014,-3.7555 -1.58418,-3.93883 -0.50404,-0.18334 -0.91644,-1.13959 -0.91644,-2.125 0,-1.65162 3.43574,-3.04167 7.51801,-3.04167 2.04005,0 2.68787,3.12897 0.91606,4.42455 -1.2029,0.87958 -1.43425,2.05759 -0.93095,4.74037 0.66885,3.5653 0.67575,3.56939 5.3333,3.16085 13.59643,-1.19263 13.30846,-1.07926 12.96979,-5.10598 -0.24466,-2.90894 -0.79385,-3.75479 -2.73207,-4.20788 -2.10682,-0.4925 -3.00551,-2.30603 -6.83333,-13.78949 l -4.40748,-13.22242 -4.16666,0.007 c -2.29167,0.004 -7.0983,0.28409 -10.6814,0.62263 l -6.51473,0.61553 0.36104,3.78592 c 0.24885,2.60939 0.92014,3.93213 2.16014,4.25639 1.72711,0.45165 1.72309,0.84542 -0.1005,9.84145 -1.38112,6.81324 -2.44434,9.74544 -3.89541,10.74294 -1.32977,0.91412 -1.99581,2.49929 -1.99581,4.75 0,3.30921 0.0866,3.37781 4.25,3.36702 2.3375,-0.006 5.97538,-0.29608 8.08418,-0.6445 z m 2.00549,-20.09449 c 0.26094,-0.9625 0.79543,-3.1 1.18776,-4.75 l 0.71332,-3 1.30355,3.5 c 1.90761,5.12191 1.74492,6 -1.11169,6 -1.9592,0 -2.455,-0.41455 -2.09294,-1.75 z m 154.02282,16 c 1.52279,-13.14731 1.69168,-16.09809 0.94746,-16.55355 -0.44547,-0.27264 -3.95995,-0.65337 -7.80995,-0.84607 -6.94478,-0.34762 -7.00244,-0.3293 -7.30897,2.32234 -0.24775,2.14326 0.14845,2.73756 2,3 1.82613,0.25884 2.30897,0.95463 2.30897,3.32728 0,2.88753 -0.16819,3 -4.4863,3 -5.34216,0 -5.5327,-0.46902 -4.53141,-11.15426 l 0.68835,-7.34574 h 4.79805 c 3.86529,0 4.89421,0.36771 5.29268,1.89149 0.34242,1.30941 1.78388,2.10931 4.68402,2.59928 4.8352,0.81691 4.62328,0.93378 5.46778,-3.01554 0.54955,-2.56999 0.12114,-3.53426 -2.84939,-6.41342 -3.24819,-3.14827 -4.05482,-3.42098 -11.37117,-3.84452 -7.27426,-0.4211 -8.18586,-0.25013 -11.95066,2.24129 -4.42608,2.92904 -4.26792,2.41276 -5.79146,18.90526 l -0.63406,6.86384 3.72037,3.81001 c 2.9215,2.99188 4.74769,3.9513 8.5046,4.468 2.92036,0.40166 5.60656,0.2179 6.89502,-0.47166 1.67061,-0.89409 2.43358,-0.80689 3.65862,0.41815 0.8513,0.8513 2.82345,1.54782 4.38255,1.54782 2.6379,0 2.87294,-0.32982 3.3849,-4.75 z m -106.72292,0.75 h 4.36043 v -4 c 0,-3.33333 -0.33333,-4 -2,-4 -1.55556,0 -2,-0.66667 -2,-3 0,-4.97602 2.65371,-3.5607 7.5,4 l 4.48689,7 h 5.12319 c 4.82492,0 5.08808,-0.13099 4.52021,-2.25 -0.33164,-1.2375 -0.60913,-3.2625 -0.61664,-4.5 -0.008,-1.2375 -0.61779,-2.25 -1.35618,-2.25 -0.73839,0 -2.19012,-1.57388 -3.22606,-3.49751 -1.87908,-3.48925 -1.87828,-3.50119 0.34253,-5.0567 1.90227,-1.33241 2.22076,-2.46003 2.18962,-7.75249 -0.035,-5.94918 -0.18283,-6.30595 -3.75,-9.0512 -3.6228,-2.78804 -3.93117,-2.84304 -12.61718,-2.25 -4.897,0.33435 -10.8595,0.6079 -13.25,0.6079 h -4.34638 v 3.88337 c 0,3.04236 0.43313,3.99663 2,4.40638 1.82343,0.47684 2,1.36401 2,10.04924 0,8.64798 -0.18439,9.58476 -2,10.16101 -2.2242,0.70593 -2.27089,0.89557 -1.35188,5.49062 0.63982,3.19908 0.7057,3.23273 5.13958,2.625 2.47029,-0.33859 6.45364,-0.61562 8.85187,-0.61562 z m -0.0865,-23.64464 c -0.88163,-3.5127 0.38598,-4.55717 5.06517,-4.17358 3.21903,0.26389 3.9394,0.72574 4.21927,2.70513 0.40354,2.85398 -1.23184,4.07708 -5.47908,4.09778 -2.56871,0.0125 -3.26264,-0.46696 -3.80536,-2.62933 z m 67.44693,20.88177 c 0,-2.91104 -0.49801,-3.98634 -2.1999,-4.75 -1.86033,-0.83476 -2.65151,-3.07094 -5.12569,-14.48713 -1.60918,-7.425 -2.98172,-13.56603 -3.0501,-13.64674 -0.0684,-0.0807 -4.96181,-0.47196 -10.87431,-0.86945 l -10.75,-0.72271 v 3.75921 c 0,2.40168 0.62139,4.21357 1.72072,5.01742 1.60857,1.17622 1.53049,1.85343 -1.1979,10.39086 -2.38914,7.47588 -3.33624,9.23746 -5.22072,9.71043 -1.90945,0.47925 -2.3021,1.24155 -2.3021,4.46939 v 3.89159 h 8 8 v -4 c 0,-2.2 -0.45,-4 -1,-4 -0.55,0 -1,-0.9 -1,-2 0,-1.69649 0.66667,-2 4.39301,-2 4.72622,0 7.2011,2.52839 4.14757,4.23723 -0.91311,0.511 -1.54058,2.23759 -1.54058,4.23914 0,3.99569 0.60896,4.24537 10.75,4.40763 l 7.25,0.116 z m -22.92392,-15.98713 c 0.0418,-0.4125 0.66457,-2.325 1.38383,-4.25 l 1.30776,-3.5 1.11617,2.8151 c 1.72223,4.34367 1.39574,5.6849 -1.38384,5.6849 -1.375,0 -2.46576,-0.3375 -2.42392,-0.75 z m -52.39941,-74.5 c 1.11392,-1.2375 2.34235,-3.13941 2.72984,-4.22647 0.63418,-1.7791 0.45783,-1.74471 -1.76591,0.34439 -1.65575,1.55549 -3.12723,2.11241 -4.46204,1.68875 -2.46166,-0.7813 -5.12495,-7.18033 -5.3386,-12.82691 l -0.16003,-4.22976 -0.54949,3.5 c -0.48698,3.10186 -0.62029,2.81747 -1.17186,-2.5 l -0.62236,-6 -0.14426,7.5 c -0.0793,4.125 0.25505,9.2204 0.74308,11.32311 1.70211,7.33371 6.736,9.87693 10.74163,5.42689 z m 126.82333,-3.77963 c 10.46782,-1.31962 17.5,-3.00561 17.5,-4.19569 0,-0.70281 -2.10447,-0.83954 -6.25,-0.40605 -3.4375,0.35944 -10.62285,0.94023 -15.96743,1.29064 -5.34459,0.3504 -9.48053,1.02042 -9.19099,1.48892 0.28955,0.46849 -1.4623,0.85181 -3.89299,0.85181 -6.48583,0 -13.69859,1.13945 -13.69859,2.16406 0,0.98476 20.33099,0.21432 31.5,-1.19369 z m -75.77083,-1.57454 c -0.33229,-0.33229 -1.1948,-0.36781 -1.91667,-0.0789 -0.79773,0.31922 -0.56078,0.55618 0.60417,0.60416 1.05416,0.0434 1.64479,-0.19293 1.3125,-0.52522 z m -35.83655,-6.89583 c -3.03222,-4.22228 -4.88228,-6.04205 -3.30411,-3.25 1.35298,2.39364 5.51678,7.75 6.02452,7.75 0.28118,0 -0.943,-2.025 -2.72041,-4.5 z m 37.52559,2.89301 c 0.86999,-0.33384 1.58179,-1.02468 1.58179,-1.53518 0,-0.51051 -0.946,-0.42191 -2.10223,0.19688 -1.15623,0.6188 -2.95623,0.90176 -4,0.62881 -1.04377,-0.27296 -1.89777,-0.0884 -1.89777,0.4101 0,1.02732 4.03123,1.21536 6.41821,0.29939 z m -48.41821,-8.375 c 0,-5.95816 -0.97587,-11.01801 -2.125,-11.01801 -0.48125,0 -0.875,0.66063 -0.875,1.46806 0,0.80744 -1.2375,2.17388 -2.75,3.03654 -2.06905,1.18008 -2.21391,1.42561 -0.58501,0.99153 4.01496,-1.06994 7.26066,7.16397 4.08501,10.36312 -1.00225,1.00966 -0.90315,1.12719 0.5,0.59301 1.32883,-0.50589 1.75,-1.81376 1.75,-5.43425 z m -92.38929,2.44984 c -1.88065,-1.88065 -3.09582,-7.82543 -2.08708,-10.21032 0.5483,-1.29631 1.03638,-0.46667 1.85987,3.16142 1.282,5.64811 4.36921,8.09459 3.26829,2.58998 -0.35849,-1.79241 -0.65179,-4.55268 -0.65179,-6.13393 0,-1.88889 -0.51449,-2.875 -1.5,-2.875 -0.825,0 -1.5,-0.825 -1.5,-1.83333 0,-1.00834 -0.675,-1.83334 -1.5,-1.83334 -1.17163,0 -1.5,1.35379 -1.5,6.18411 0,7.17394 1.56047,12.48256 3.66925,12.48256 1.27267,0 1.26469,-0.20892 -0.0585,-1.53215 z m 139.38929,0.53215 c 0,-0.55 -0.47656,-1 -1.05902,-1 -0.58246,0 -0.7809,0.45 -0.44098,1 0.33992,0.55 0.81648,1 1.05902,1 0.24254,0 0.44098,-0.45 0.44098,-1 z m -56,-2 c 0,-0.55 -0.45,-1 -1,-1 -0.55,0 -1,0.45 -1,1 0,0.55 0.45,1 1,1 0.55,0 1,-0.45 1,-1 z m 53.44113,-1.5318 c 1.06762,-0.80751 1.49113,-1.4682 0.94113,-1.4682 -0.55,0 -1.87351,0.66069 -2.94113,1.4682 -1.06762,0.8075 -1.49113,1.46819 -0.94113,1.46819 0.55,0 1.87351,-0.66069 2.94113,-1.46819 z m -40.9818,-7.7182 c -5.89148,-14.83257 -12.63835,-19.86287 -21.89798,-16.32658 -8.29644,3.16844 -11.73886,9.96173 -9.78928,19.31818 l 0.9915,4.7584 0.11821,-6.34887 c 0.20963,-11.25815 4.44085,-16.15113 13.96675,-16.15113 6.72622,0 9.01073,2.14919 14.61575,13.75 2.45807,5.0875 4.64982,9.25 4.87058,9.25 0.22075,0 -1.07324,-3.7125 -2.87553,-8.25 z m 141.08179,5.18347 c 1.07627,-1.74144 -0.14952,-2.11024 -1.52106,-0.45764 -0.78875,0.95039 -0.86462,1.52417 -0.20152,1.52417 0.58488,0 1.36004,-0.47994 1.72258,-1.06653 z m -35.29954,-3.34875 c 23.5795,-0.67135 24.71781,-0.61943 24.23533,1.10542 -0.69958,2.50098 2.10102,-3.62214 3.01502,-6.5919 0.7237,-2.35148 0.64236,-2.3885 -3.88509,-1.76794 -2.54335,0.34861 -13.39535,0.93756 -24.11556,1.30879 l -19.49128,0.67497 v -3.02032 -3.02031 l 21.25,-0.69391 c 11.6875,-0.38165 22.0375,-0.92349 23,-1.2041 1.20902,-0.35248 1.75473,0.0516 1.76531,1.30719 0.01,1.15303 0.28389,1.39729 0.75,0.66821 0.40408,-0.63206 1.85969,-1.30706 3.23469,-1.5 1.73068,-0.24286 2.60225,-1.07306 2.83227,-2.69785 0.33104,-2.33843 0.3402,-2.33989 2.5,-0.39901 3.6341,3.26576 5.40386,3.39695 7.63094,0.56568 2.46035,-3.12782 2.56151,-5.12548 0.41477,-8.19039 -1.13888,-1.62598 -2.32132,-2.18207 -3.96974,-1.86696 -1.29124,0.24684 -2.10978,0.0638 -1.81896,-0.40675 0.97975,-1.58527 6.08614,-0.87168 7.87035,1.09985 1.21053,1.33762 1.64029,3.06303 1.3603,5.46135 -0.22512,1.92828 -0.21644,3.3131 0.0193,3.07737 0.23573,-0.23573 1.55403,0.45666 2.92955,1.53864 1.37552,1.08199 3.4608,1.96725 4.63395,1.96725 3.35638,0 9.5949,-4.72861 9.61259,-7.28605 0.0127,-1.83338 0.19584,-1.9561 1.06551,-0.71395 0.80227,1.14589 0.88877,0.90982 0.36641,-1 -1.08855,-3.97983 -3.46452,-6 -7.05676,-6 h -3.29956 l 2.45454,2.45455 c 2.83598,2.83597 3.25775,7.5994 0.88312,9.97402 -2.20526,2.20526 -4.10036,1.97123 -2.08356,-0.25731 3.35706,-3.70951 0.53151,-10.76313 -3.96703,-9.90318 -3.00063,0.5736 -3.06391,-0.0496 -0.12798,-1.26057 1.59146,-0.65642 -0.22724,-0.8665 -6.21387,-0.71778 -8.35046,0.20745 -8.49332,0.25404 -10.66127,3.47648 l -2.19739,3.26621 -1.00979,-2.76621 -1.00979,-2.76621 -0.14233,2.5 -0.14233,2.5 -0.98797,-2.47593 c -0.72629,-1.82015 -1.20262,-2.12861 -1.79842,-1.16459 -0.44574,0.72124 -1.21014,1.16041 -1.69864,0.97593 -0.48852,-0.18448 -1.11321,1.68959 -1.38821,4.16459 l -0.5,4.5 h -35 -35 v -6 -6 l 35,-0.5195 35,-0.51951 -35.12756,-0.23049 c -29.24421,-0.1919 -35.32391,0.006 -36.29998,1.18219 -0.70512,0.84962 -1.05286,3.9386 -0.87244,7.75 l 0.29998,6.33731 12.11762,0.27972 12.11763,0.27971 -0.66214,3.22029 -0.66214,3.22028 -19.45548,-0.0341 c -18.91273,-0.0332 -27.95549,-1.16677 -27.95549,-3.50444 0,-0.54987 4.19525,-0.96146 9.8,-0.96146 6.28889,0 10.22993,-0.42993 11,-1.2 0.71791,-0.71791 1.2,-4.18383 1.2,-8.62723 v -7.42723 l -5.03263,0.48357 c -6.35665,0.6108 -9.96737,3.67011 -9.96737,8.4452 0,4.52408 -4.70286,9.23353 -6.42997,6.439 -0.30141,-0.48768 0.12204,-1.44278 0.94098,-2.12245 1.81244,-1.50418 1.95182,-6.73068 0.23899,-8.96113 -0.6875,-0.89526 -0.2375,-0.5681 1,0.72702 1.2375,1.29513 2.25,1.80262 2.25,1.12775 0,-2.26368 -3.28363,-4.8845 -6.1198,-4.8845 -3.64307,0 -5.23633,2.92097 -5.31767,9.74902 l -0.0625,5.24902 -4,0.16102 c -3.86397,0.15554 -3.88552,0.17503 -0.63371,0.57301 3.29713,0.40353 3.35365,0.49106 2.75089,4.26049 -1.1742,7.34306 -2.49084,7.00744 27.48981,7.00744 20.83957,0 26.89646,0.28137 26.90832,1.25 0.0107,0.86961 0.23889,0.9136 0.75,0.14457 0.48151,-0.72448 9.26078,-1.34817 25.47627,-1.80985 z M 278.3897,213.53283 c 0,-0.31428 0.675,-1.24643 1.5,-2.07143 2.26675,-2.26675 1.80948,-5.42343 -1.25,-8.62912 l -2.75,-2.88141 3.48195,0.3267 c 2.70655,0.25394 3.68497,0.90781 4.39365,2.93626 1.08115,3.09455 0.23632,7.13565 -1.94853,9.3205 -1.55489,1.55489 -3.42707,2.10036 -3.42707,0.9985 z m -157.84216,4.96943 c -2.3556,-1.64992 -3.86458,-1.35054 -2.69896,0.53547 0.36254,0.58659 1.63272,1.06653 2.82264,1.06653 h 2.16349 z m 101.34216,-2.398 c -0.99549,-1.1 -2.24008,-2 -2.76577,-2 -0.52569,0 0.10655,0.88503 1.40499,1.96673 3.05584,2.54577 3.64766,2.56024 1.36078,0.0333 z m -89.81689,-2.1875 c -0.31922,-0.79773 -0.55618,-0.56078 -0.60416,0.60417 -0.0434,1.05416 0.19292,1.64479 0.52522,1.3125 0.33229,-0.3323 0.36781,-1.1948 0.0789,-1.91667 z m -48.683113,-8.48135 c 1.925,-0.32506 4.625,-1.59158 6,-2.81449 4.01401,-3.57002 5.57772,-3.6315 12.237063,-0.4811 4.46353,2.1116 7.77132,2.96309 11.51294,2.96365 5.0224,7.6e-4 5.25687,-0.11843 5.40844,-2.74921 0.0872,-1.5125 0.0785,-3.61633 -0.0192,-4.67519 -0.28733,-3.11308 4.66185,-7.30535 12.45379,-10.54914 3.99739,-1.66412 7.89436,-3.02567 8.65992,-3.02567 0.76557,0 3.94329,-2.88807 7.06161,-6.41794 8.8518,-10.02006 17.41011,-15.14979 30.91584,-18.53053 6.19831,-1.55155 15.18917,-3.13677 19.9797,-3.52271 9.81453,-0.79068 9.87596,-0.84868 9.9421,-9.38681 0.0484,-6.24865 -2.78106,-12.69924 -8.10274,-18.47258 -5.41565,-5.87529 -10.11662,-8.04868 -17.06492,-7.8896 -9.54214,0.21846 -21.34494,6.56635 -25.54982,13.74144 -3.24484,5.53689 -4.30643,13.51035 -2.04829,15.38443 4.86844,4.04045 -0.87648,11.0943 -9.0356,11.0943 -3.26627,0 -6.86069,-3.68067 -5.36012,-5.48874 1.30234,-1.56923 8.42121,-2.99278 10.0212,-2.00393 1.43797,0.88871 -0.66853,3.49267 -2.82543,3.49267 -1.2558,0 -1.18151,-0.29285 0.37244,-1.4682 1.63913,-1.23977 1.68673,-1.47314 0.30594,-1.5 -0.89935,-0.0175 -3.10683,0.58698 -4.9055,1.34326 l -3.27031,1.37506 2.64822,1.73518 c 2.86641,1.87814 6.4119,1.51175 10.41278,-1.07608 2.78504,-1.8014 2.88534,-4.77388 0.25,-7.40922 -5.80956,-5.80956 -22.92754,2.74809 -29.10169,14.54857 -2.28442,4.36616 -2.56451,4.55743 -5.89831,4.02786 -12.36916,-1.96485 -11.96251,-1.98346 -14.80327,0.6775 -6.066193,5.68222 -10.839903,7.23842 -22.339683,7.2826 -11.88571,0.0456 -12.77675,0.42558 -16.05121,6.84404 -1.98564,3.89217 -1.99384,4.11488 -0.26944,7.31689 2.16036,4.01153 6.13439,4.64109 6.64404,1.05254 0.33143,-2.33359 3.51081,-3.46619 6.50491,-2.31725 1.25838,0.48289 1.30928,0.86879 0.27839,2.11094 -1.10816,1.33525 -0.91274,1.38741 1.60765,0.42917 2.30857,-0.87772 3.08504,-0.79561 3.97409,0.42023 0.7118,0.97345 1.93436,1.29419 3.4361,0.90148 1.62183,-0.42412 2.11348,-0.2574 1.61577,0.54791 -0.9036,1.46198 -6.5974,1.52935 -6.5974,0.0781 0,-0.68685 -1.12731,-0.83185 -3.09955,-0.39868 -2.84957,0.62587 -3.04366,0.50471 -2.40665,-1.50232 0.59278,-1.8677 0.35433,-2.13517 -1.65046,-1.85132 -1.48446,0.21017 -2.45377,1.10532 -2.64461,2.44228 -0.26858,1.88146 -1.17735,2.18356 -8.37403,2.78374 -6.61692,0.55183 -8.52679,0.37576 -10.59037,-0.97635 -2.12501,-1.39236 -3.12843,-1.46659 -6.43474,-0.47599 -3.69411,1.10678 -22.25061,3.00627 -29.71626,3.04183 -1.87917,0.009 -3.16832,0.26462 -2.86478,0.56815 0.30353,0.30354 7.36811,0.7258 15.69905,0.93836 14.72812,0.37579 15.23576,0.46102 18.34936,3.08094 3.08114,2.59261 3.52985,2.67324 11.86993,2.13291 8.10826,-0.52531 8.88382,-0.40175 12.01542,1.91428 2.1272,1.57321 4.07684,2.26219 5.34769,1.88982 1.1,-0.32232 3.575,-0.85199 5.5,-1.17704 z M 252.3897,202.32677 c 0,-0.97763 0.65811,-2.71709 1.46247,-3.86547 1.41538,-2.02073 1.23019,-2.15613 -5.75,-4.20422 -11.0451,-3.24079 -31.19142,-5.43273 -50.99857,-5.54869 -13.3788,-0.0783 -17.98042,0.21014 -18.57031,1.16414 -1.34125,2.16915 -6.86188,3.27609 -8.21393,1.64698 -0.64628,-0.77873 -2.93296,-1.41525 -5.08422,-1.41525 -2.15032,0 -5.58272,-0.71967 -7.62756,-1.59927 -7.80966,-3.35937 -9.30271,-3.47624 -17.18147,-1.3449 -9.14026,2.47261 -17.38229,6.7713 -17.8717,9.32114 -0.33307,1.73532 0.12807,1.82467 6.11078,1.18398 5.63574,-0.60354 7.25702,-0.36218 12.55988,1.86976 l 6.08882,2.56275 46.78791,-0.0622 c 27.119,-0.036 48.25925,0.34271 50.2879,0.90091 5.68256,1.56361 8,1.38698 8,-0.60971 z m 19,-2.28153 c 0,-0.51754 -0.9551,-0.94098 -2.12244,-0.94098 -1.76626,0 -1.91507,0.24988 -0.8867,1.48899 1.24904,1.50499 3.00914,1.18445 3.00914,-0.54801 z m 28.26375,-0.64491 c -1.22994,-0.23736 -3.47994,-0.24351 -5,-0.0136 -1.52006,0.22985 -0.51375,0.42406 2.23625,0.43157 2.75,0.007 3.99369,-0.18056 2.76375,-0.41792 z M 176.31076,188.05548 c -1.05493,-0.65199 -1.05205,-1.08846 0.0157,-2.375 0.72589,-0.87465 0.85617,-1.57622 0.29268,-1.57622 -0.5585,0 -1.27447,0.675 -1.59106,1.5 -0.76645,1.99733 0.31165,4.64893 1.57318,3.86926 0.623,-0.38504 0.51313,-0.92138 -0.29049,-1.41804 z m 16.80818,-13.20716 c 0.26286,-11.74618 1.46098,-13.74406 8.24225,-13.74406 h 3.74993 l 0.6306,5.25 c 0.34683,2.8875 0.63451,7.66064 0.63929,10.60699 0.007,4.61645 0.24228,5.26735 1.69846,4.70856 0.92938,-0.35663 11.27938,-0.92606 23,-1.2654 19.80917,-0.57352 21.31023,-0.7467 21.31023,-2.45856 0,-1.4987 -0.79132,-1.84302 -4.25,-1.84929 -3.84703,-0.007 -4.45893,-0.36253 -6.45351,-3.75 -1.21194,-2.05827 -3.40954,-5.71282 -4.88357,-8.12123 l -2.68005,-4.37894 9.88356,0.67385 c 11.83944,0.80719 28.53641,2.43607 33.38357,3.25675 1.925,0.32592 3.23466,0.30505 2.91036,-0.0464 -0.32431,-0.35143 -5.94931,-1.40491 -12.5,-2.34106 -9.08536,-1.29838 -19.22302,-1.71197 -42.74097,-1.7437 -29.39064,-0.0397 -30.89691,0.0491 -32.25,1.89954 -2.00188,2.73773 -2.0043,23.69555 -0.003,23.55293 0.0458,-0.003 0.18649,-4.61576 0.31257,-10.25 z m 22.70325,-1.58925 c -0.86242,-3.11015 -1.99345,-6.9764 -2.51339,-8.59168 -1.18158,-3.67077 -0.12928,-4.80386 4.07324,-4.38597 3.09101,0.30736 3.39015,0.72095 6.23962,8.62705 1.64613,4.56731 2.82985,8.4429 2.6305,8.61241 -0.19935,0.16951 -2.27484,0.55228 -4.6122,0.8506 l -4.24974,0.5424 z m -40.22527,9.47097 c 2.33535,0.0715 2.5709,-0.17185 1.71481,-1.77146 -1.85427,-3.46474 -9.92203,-1.9485 -9.92203,1.86473 0,0.95353 0.76205,1.11189 2.75,0.57147 1.5125,-0.41118 3.96825,-0.71031 5.45722,-0.66474 z m 136.79278,-0.12578 c -0.68469,-0.825 -2.53979,-1.5 -4.12244,-1.5 -1.89116,0 -2.87756,0.51418 -2.87756,1.5 0,1.09076 1.12472,1.5 4.12244,1.5 3.55102,0 3.94989,-0.20792 2.87756,-1.5 z m -17.21057,-6.89914 c -0.70919,-0.76953 -1.44699,-1.24947 -1.63957,-1.06653 -0.59314,0.56346 0.91014,2.46567 1.94858,2.46567 0.53923,0 0.40017,-0.62961 -0.30901,-1.39914 z m 10.46057,0.69341 c -1.2375,-0.23836 -3.2625,-0.23836 -4.5,0 -1.2375,0.23835 -0.225,0.43337 2.25,0.43337 2.475,0 3.4875,-0.19502 2.25,-0.43337 z m -137.25,-10.15666 c 3.025,-1.71536 5.05,-3.11884 4.5,-3.11884 -1.85338,0 -10.96861,5.75077 -15,9.46346 l -4,3.68378 4.5,-3.45478 c 2.475,-1.90012 6.975,-4.85825 10,-6.57362 z m 106.72917,1.25822 c -0.33229,-0.33229 -1.1948,-0.36781 -1.91667,-0.0789 -0.79773,0.31922 -0.56078,0.55618 0.60417,0.60416 1.05416,0.0434 1.64479,-0.19293 1.3125,-0.52522 z m 40.27083,-0.48684 c -5.74144,-1.45386 -25.0226,-2.08701 -32,-1.0508 -6.13871,0.91165 -5.85121,0.95664 5.17246,0.80935 6.41985,-0.0858 12.00735,0.17893 12.41666,0.58825 0.40932,0.40931 4.60671,0.69815 9.32755,0.64185 7.08249,-0.0845 7.97134,-0.25733 5.08333,-0.98865 z m -134.27083,-5.51316 c -0.3323,-0.33229 -1.1948,-0.36781 -1.91667,-0.0789 -0.79773,0.31922 -0.56078,0.55618 0.60417,0.60416 1.05416,0.0434 1.64479,-0.19293 1.3125,-0.52522 z m 7.77083,-0.39583 c -0.33992,-0.55 -2.05398,-0.94076 -3.80902,-0.86836 l -3.19098,0.13164 3.5,0.73672 c 1.925,0.40519 3.63906,0.79596 3.80902,0.86836 0.16996,0.0724 0.0309,-0.31836 -0.30902,-0.86836 z m 29.75,-6.66228 c -0.6875,-0.27741 -1.8125,-0.27741 -2.5,0 -0.6875,0.27741 -0.125,0.50439 1.25,0.50439 1.375,0 1.9375,-0.22698 1.25,-0.50439 z m 145.5,18.58218 c -1.02813,-0.59883 -1.75,-2.21193 -1.75,-3.91057 0,-3.2686 1.70362,-4.94527 2.61405,-2.57271 0.32996,0.85986 1.45178,1.56338 2.49294,1.56338 1.43668,0 1.89301,0.72318 1.89301,3 0,3.21672 -1.85734,3.89594 -5.25,1.9199 z m 4.25,-2.02689 c 0,-1.44523 -0.46281,-1.92939 -1.47355,-1.54153 -0.81277,0.31189 -1.92021,-0.20067 -2.46959,-1.14301 -0.89422,-1.53382 -0.99915,-1.49891 -1.02645,0.34153 -0.0344,2.31585 1.72553,4.45 3.66959,4.45 0.715,0 1.3,-0.94814 1.3,-2.10699 z M 55.089697,165.92531 c -3.46653,-1.2641 -2.97738,-3.33823 0.77164,-3.272 1.75338,0.031 3.80778,-0.98232 5.57546,-2.75 2.72915,-2.72915 7.84558,-3.87218 8.0529,-1.79905 0.72029,7.20299 -0.70605,9.02796 -6.97245,8.92105 -2.54515,-0.0434 -5.88755,-0.53842 -7.42755,-1.1 z m 11.08352,-2.176 c 1.39897,-1.39897 0.90172,-5.64505 -0.66107,-5.64505 -0.40853,0 -2.16039,1.38598 -3.89303,3.07995 -2.2765,2.22571 -3.71594,2.90041 -5.18984,2.43261 -1.12177,-0.35603 -2.03958,-0.20001 -2.03958,0.34673 0,2.44468 9.29357,2.27571 11.78352,-0.21424 z M 221.48164,139.70212 c -1.35823,-1.44577 -2.12436,-3.33282 -1.92432,-4.73978 0.37585,-2.64336 3.83238,-3.93439 3.83238,-1.4314 0,0.89071 0.84213,1.57332 1.94098,1.57332 2.52011,0 3.39705,1.51705 2.63411,4.55684 -0.78866,3.14227 -3.55324,3.15977 -6.48315,0.041 z m 5.40806,-1.18119 c 0,-1.22631 -0.81042,-2.03177 -2.25,-2.23622 -1.2375,-0.17575 -2.25,-0.98981 -2.25,-1.80902 0,-0.8192 -0.45,-1.21135 -1,-0.87143 -1.74878,1.08081 -1.07887,4.20116 1.25,5.82229 2.7722,1.92973 4.25,1.61483 4.25,-0.90562 z m -61.97497,-36.21205 c -1.26418,-3.29439 -0.51324,-7.394937 1.44818,-7.907867 1.77051,-0.463 1.9191,-1.14679 1.44652,-6.656379 -0.91432,-10.659527 -1.36093,-12.391732 -3.32749,-12.906002 -1.34038,-0.350516 -1.96813,-1.635731 -2.25179,-4.610187 -0.21631,-2.268301 -0.38141,-4.171926 -0.36688,-4.230277 0.0145,-0.05835 6.10143,-0.666907 13.52643,-1.352346 l 13.5,-1.246254 4.66015,2.898936 c 4.53982,2.824083 4.6708,3.046205 5.0725,8.602347 0.39531,5.467821 0.25663,5.865843 -3.35722,9.63577 -3.41598,3.56351 -4.33732,3.97343 -9.8225,4.370191 -5.01354,0.362651 -6.05293,0.748681 -6.05293,2.248091 0,1.11595 0.86296,1.93282 2.25,2.12981 1.87042,0.26564 2.30187,1.03652 2.5575,4.569547 0.27831,3.84663 0.0885,4.25587 -2,4.31182 -1.26913,0.034 -5.55874,0.38789 -9.53247,0.78641 -5.695,0.57115 -7.33616,0.43486 -7.75,-0.64361 z M 186.8897,76.604261 c 0,-1.63804 -0.76917,-2.055651 -4.25,-2.307498 -4.08571,-0.295611 -4.25,-0.196371 -4.25,2.567229 0,2.804341 0.10406,2.860838 4.25,2.307497 3.39426,-0.453016 4.25,-0.969931 4.25,-2.567228 z m 136.75,25.776599 c -3.04007,-0.37726 -3.25,-0.65439 -3.25,-4.29027 0,-2.527567 0.56105,-4.200927 1.60424,-4.784727 1.46816,-0.82162 1.46319,-1.17054 -0.0587,-4.113469 -1.85865,-3.594225 -3.45655,-3.602054 -5.25417,-0.02574 -0.98914,1.967869 -0.94374,2.552669 0.25,3.220719 1.51917,0.85017 1.84442,3.676677 0.84977,7.384817 -0.52992,1.97556 -1.08328,2.12622 -6.23635,1.69796 -12.20103,-1.01401 -12.15479,-0.99333 -12.15479,-5.43596 0,-3.324597 0.41139,-4.135837 2.5,-4.929927 2.1421,-0.81443 2.5,-1.57829 2.5,-5.335681 0,-2.411849 0.27963,-6.425321 0.62141,-8.918829 0.55169,-4.025028 0.3834,-4.609189 -1.5,-5.206959 -2.16422,-0.686897 -2.64585,-2.981553 -1.51259,-7.206458 0.52992,-1.975563 1.08328,-2.126225 6.23635,-1.697963 12.16866,1.011315 12.15483,1.005213 12.15483,5.361511 0,2.209204 -0.58437,4.252272 -1.34566,4.704687 -0.74012,0.439829 -1.63945,2.315089 -1.99851,4.167243 l -0.65285,3.367553 3.74851,-2.789246 c 2.06168,-1.534086 3.96048,-2.961452 4.21955,-3.171926 0.25907,-0.210474 -0.0958,-0.73299 -0.78855,-1.161148 -0.88106,-0.544525 -1.05377,-2.065588 -0.5747,-5.061493 l 0.68488,-4.283026 4.49324,0.615867 c 2.47128,0.338726 6.45543,0.615866 8.85366,0.615866 h 4.36043 v 4.454687 c 0,4.257123 -0.14787,4.482427 -3.33413,5.080173 -1.83377,0.344017 -4.55806,1.601908 -6.05399,2.795313 l -2.71986,2.169827 3.20288,7.249999 c 1.76159,3.987503 3.78433,7.250003 4.49498,7.250003 2.00857,0 2.56572,1.65365 1.84733,5.482987 l -0.65979,3.51701 -5.63871,-0.16004 c -3.10129,-0.088 -7.10121,-0.34153 -8.88871,-0.56336 z m -116.25,-6.736157 c 0,-3.28663 0.39792,-4.54044 1.44098,-4.54044 2.03038,0 2.54574,-1.12251 5.06992,-11.042853 2.16357,-8.503089 2.17541,-8.805917 0.36283,-9.279919 -1.4326,-0.374633 -1.87373,-1.419703 -1.87373,-4.439006 v -3.949014 l 6.75,-0.637496 c 3.7125,-0.350623 8.64344,-0.640695 10.95765,-0.644605 l 4.20766,-0.0071 2.10035,7.25 c 5.55281,19.167178 6.39084,21.236723 8.73434,21.569553 1.94668,0.27647 2.25,0.91681 2.25,4.75 v 4.430447 h -10 -10 v -3.950307 c 0,-2.6219 0.55163,-4.25902 1.6404,-4.86833 2.60527,-1.457981 0.60126,-3.181364 -3.69942,-3.181364 -3.89425,0 -5.09089,1.402631 -3.02864,3.550004 0.50179,0.5225 1.06429,2.75 1.25,4.95 l 0.33766,3.999997 -8.25,0.29044 -8.25,0.29044 z m 19.45499,-17.790442 c -0.91126,-3.016175 -2.45499,-4.608194 -2.45499,-2.531787 0,0.890016 -0.27314,2.330016 -0.60699,3.2 -0.4388,1.143508 -0.005,1.581787 1.56739,1.581787 1.78966,0 2.0541,-0.398097 1.49459,-2.25 z m 50.636,14.798202 c -4.20053,-7.653578 -7.09099,-9.71135 -7.09099,-5.048203 0,1.833333 0.53333,2.500003 2,2.500003 1.7037,0 2,0.66666 2,4.5 v 4.499997 h -9.44098 c -5.59881,0 -9.70883,-0.43337 -10.09912,-1.06489 -1.25762,-2.03487 0.50528,-7.692737 2.56474,-8.231307 1.79185,-0.46857 1.97536,-1.396975 1.97536,-9.993551 0,-8.635984 -0.17748,-9.523401 -2,-10 -1.58911,-0.415563 -2,-1.364016 -2,-4.616631 v -4.09362 h 13.99712 13.99712 l 4.00288,3.616362 c 3.71116,3.352811 4.00288,4.00223 4.00288,8.911107 0,4.601851 -0.3755,5.610704 -2.86937,7.709156 -2.6828,2.257429 -2.77911,2.586667 -1.48123,5.063751 0.76347,1.457137 2.30415,3.139576 3.42372,3.738756 1.64001,0.87771 1.97645,1.90285 1.73124,5.27514 l -0.30436,4.185727 -5.13316,0.29821 -5.13315,0.2982 z m 1.40901,-18.548202 c 0,-2.167046 -0.49943,-2.541335 -3.75,-2.810365 -3.59854,-0.29783 -3.75,-0.184322 -3.75,2.810365 0,2.994687 0.15146,3.108195 3.75,2.810365 3.25057,-0.26903 3.75,-0.643319 3.75,-2.810365 z"
       id="path9" />
  </g>
</svg>
